<svg width="24" height="24" viewBox="0 0 24 24" fill="none" xmlns="http://www.w3.org/2000/svg">
<g clip-path="url(#clip0_64_669)">
<path d="M21.1942 2.33729C20.5989 1.78886 18.1895 0.0404199 12.8177 0.0169824C12.8177 0.0169824 6.48486 -0.362705 3.40049 2.46854C1.68486 4.18417 1.08017 6.70135 1.01455 9.81854C0.948924 12.9357 0.869237 18.7763 6.49892 20.3607H6.50361L6.49892 22.7795C6.49892 22.7795 6.46142 23.7592 7.1083 23.956C7.88642 24.1998 8.3458 23.4545 9.09111 22.6529C9.49892 22.2123 10.0614 21.5654 10.488 21.0732C14.3411 21.3967 17.2989 20.656 17.6364 20.5482C18.4146 20.2951 22.8161 19.7326 23.5286 13.892C24.2692 7.86385 23.1724 4.05761 21.1942 2.33729ZM21.8458 13.4514C21.2411 18.3263 17.6739 18.6357 17.0177 18.8467C16.7364 18.9357 14.1349 19.5826 10.8677 19.3717C10.8677 19.3717 8.43017 22.3107 7.6708 23.0748C7.42236 23.3232 7.15049 23.2998 7.15517 22.8076C7.15517 22.4842 7.17392 18.7904 7.17392 18.7904C7.16924 18.7904 7.16924 18.7904 7.17392 18.7904C2.40205 17.4685 2.6833 12.4951 2.73486 9.89354C2.78642 7.29198 3.27861 5.15917 4.73174 3.72479C7.34267 1.35761 12.7192 1.70917 12.7192 1.70917C17.2614 1.72792 19.4364 3.09667 19.9427 3.55604C21.6161 4.99042 22.4692 8.42167 21.8458 13.4514ZM15.3302 9.66385C15.3489 10.067 14.7442 10.0951 14.7255 9.69198C14.6739 8.66073 14.1911 8.15917 13.1974 8.10292C12.7942 8.07948 12.8317 7.47479 13.2302 7.49823C14.538 7.56854 15.2645 8.31854 15.3302 9.66385ZM16.2817 10.1935C16.3286 8.20604 15.0864 6.64979 12.7286 6.47635C12.3302 6.44823 12.3724 5.84354 12.7708 5.87167C15.4895 6.06854 16.938 7.93885 16.8864 10.2076C16.8817 10.6107 16.2724 10.592 16.2817 10.1935ZM18.4849 10.8217C18.4895 11.2248 17.8802 11.2295 17.8802 10.8264C17.852 7.00604 15.3067 4.92479 12.2177 4.90135C11.8192 4.89667 11.8192 4.29667 12.2177 4.29667C15.6724 4.32011 18.4521 6.70604 18.4849 10.8217ZM17.9552 15.4201V15.4295C17.4489 16.3201 16.5021 17.3045 15.5271 16.9904L15.5177 16.9763C14.5286 16.6998 12.1989 15.4998 10.727 14.3279C9.96767 13.7279 9.27392 13.0201 8.73955 12.3404C8.25674 11.7357 7.76924 11.0185 7.2958 10.156C6.29736 8.35135 6.07705 7.5451 6.07705 7.5451C5.76299 6.5701 6.74267 5.62323 7.63799 5.11698H7.64736C8.07861 4.89198 8.49111 4.96698 8.76767 5.29979C8.76767 5.29979 9.34892 5.99354 9.59736 6.33573C9.83174 6.65448 10.1458 7.16542 10.3099 7.45135C10.5958 7.96229 10.4177 8.4826 10.1364 8.69823L9.57392 9.14823C9.28799 9.37792 9.32549 9.80448 9.32549 9.80448C9.32549 9.80448 10.1599 12.9592 13.2771 13.756C13.2771 13.756 13.7036 13.7935 13.9333 13.5076L14.3833 12.9451C14.5989 12.6639 15.1192 12.4857 15.6302 12.7717C16.3192 13.1607 17.1958 13.7654 17.7771 14.3138C18.1052 14.581 18.1802 14.9888 17.9552 15.4201Z" fill="#7B519D"/>
</g>
<defs>
<clipPath id="clip0_64_669">
<rect width="24" height="24" fill="white"/>
</clipPath>
</defs>
</svg>
