<svg width="40" height="32" viewBox="0 0 40 32" fill="none" xmlns="http://www.w3.org/2000/svg">
<path d="M31.3573 0.255127H17.3524V4.16829C19.9778 4.41315 22.4139 5.55336 24.3019 7.44128C25.6064 8.74579 26.5533 10.3122 27.0954 12.0218H35.6915V14.3739H27.5735C27.6077 14.7342 27.6253 15.098 27.6253 15.4645C27.6253 15.7654 27.6132 16.0645 27.5901 16.3614H35.6915V18.7134H27.1552C26.9333 19.4601 26.6344 20.1806 26.2629 20.8653H28.8331V23.2173H24.5627C24.4773 23.3085 24.3908 23.3989 24.3019 23.4878C22.4141 25.3756 19.978 26.5158 17.3525 26.7607V28.4695H40.0001V8.87217H31.3573V0.255127Z" fill="#5477BB"/>
<path d="M39.3098 6.52012L33.7094 0.942627V6.52012H39.3098Z" fill="#5477BB"/>
<path d="M10.7394 22.6588C12.3198 23.8808 14.2483 24.5433 16.2787 24.5433C18.7037 24.5433 20.9836 23.599 22.6982 21.8842C24.413 20.1695 25.3573 17.8896 25.3573 15.4646C25.3573 13.0396 24.4129 10.7598 22.6982 9.04507C20.9835 7.3303 18.7037 6.38599 16.2787 6.38599C13.8538 6.38599 11.5739 7.3303 9.8592 9.04507C6.59974 12.3045 6.34183 17.446 9.08498 21.0035L7.92217 22.1664L7.16899 22.2295L4.71667 22.4347L9.30865 27.0268L9.51378 24.5765L9.57696 23.8213L10.7394 22.6588ZM11.514 10.6999C12.7867 9.42718 14.4789 8.72631 16.2786 8.72631C18.0785 8.72631 19.7707 9.42718 21.0434 10.6999C22.3161 11.9726 23.017 13.6647 23.017 15.4646C23.017 17.2644 22.3161 18.9565 21.0434 20.2293C19.7707 21.502 18.0786 22.2029 16.2786 22.2029C14.4788 22.2029 12.7867 21.502 11.514 20.2293C10.2413 18.9565 9.54044 17.2644 9.54044 15.4646C9.54044 13.6647 10.2413 11.9726 11.514 10.6999V10.6999Z" fill="#5477BB"/>
<path d="M0.963725 26.1186C-0.321242 27.4036 -0.321242 29.4946 0.963725 30.7796C1.58623 31.4021 2.41386 31.7449 3.29428 31.7449C4.1747 31.7449 5.00233 31.4021 5.62475 30.7796L7.68816 28.7162L3.02713 24.0552L0.963725 26.1186Z" fill="#5477BB"/>
</svg>
