<svg width="35" height="40" viewBox="0 0 35 40" fill="none" xmlns="http://www.w3.org/2000/svg">
<path d="M10.375 9.68757H21.625C21.8736 9.68757 22.1121 9.58879 22.2879 9.41298C22.4637 9.23716 22.5625 8.99871 22.5625 8.75007V4.37507C22.5625 4.12643 22.4637 3.88797 22.2879 3.71215C22.1121 3.53634 21.8736 3.43757 21.625 3.43757H19.9531C19.7418 2.54799 19.2366 1.7557 18.5193 1.18878C17.8019 0.621866 16.9143 0.313477 16 0.313477C15.0857 0.313477 14.1981 0.621866 13.4807 1.18878C12.7634 1.7557 12.2582 2.54799 12.0469 3.43757H10.375C10.1264 3.43757 9.8879 3.53634 9.71209 3.71215C9.53627 3.88797 9.4375 4.12643 9.4375 4.37507V8.75007C9.4375 8.99871 9.53627 9.23716 9.71209 9.41298C9.8879 9.58879 10.1264 9.68757 10.375 9.68757V9.68757ZM16 3.43757C16.1854 3.43757 16.3667 3.49255 16.5208 3.59556C16.675 3.69858 16.7952 3.84499 16.8661 4.0163C16.9371 4.18761 16.9557 4.37611 16.9195 4.55796C16.8833 4.73982 16.794 4.90687 16.6629 5.03798C16.5318 5.16909 16.3648 5.25838 16.1829 5.29455C16.001 5.33073 15.8125 5.31216 15.6412 5.2412C15.4699 5.17025 15.3235 5.05008 15.2205 4.89591C15.1175 4.74174 15.0625 4.56049 15.0625 4.37507C15.0625 4.12643 15.1613 3.88797 15.3371 3.71215C15.5129 3.53634 15.7514 3.43757 16 3.43757V3.43757Z" fill="#5477BB"/>
<path d="M9.125 17.1875H12.875C13.1236 17.1875 13.3621 17.0887 13.5379 16.9129C13.7137 16.7371 13.8125 16.4986 13.8125 16.25V12.5C13.8125 12.2514 13.7137 12.0129 13.5379 11.8371C13.3621 11.6613 13.1236 11.5625 12.875 11.5625H9.125C8.87636 11.5625 8.6379 11.6613 8.46209 11.8371C8.28627 12.0129 8.1875 12.2514 8.1875 12.5V16.25C8.1875 16.4986 8.28627 16.7371 8.46209 16.9129C8.6379 17.0887 8.87636 17.1875 9.125 17.1875ZM10.0625 13.4375H11.9375V15.3125H10.0625V13.4375Z" fill="#5477BB"/>
<path d="M9.125 25.3125H12.875C13.1236 25.3125 13.3621 25.2137 13.5379 25.0379C13.7137 24.8621 13.8125 24.6236 13.8125 24.375V20.625C13.8125 20.3764 13.7137 20.1379 13.5379 19.9621C13.3621 19.7863 13.1236 19.6875 12.875 19.6875H9.125C8.87636 19.6875 8.6379 19.7863 8.46209 19.9621C8.28627 20.1379 8.1875 20.3764 8.1875 20.625V24.375C8.1875 24.6236 8.28627 24.8621 8.46209 25.0379C8.6379 25.2137 8.87636 25.3125 9.125 25.3125ZM10.0625 21.5625H11.9375V23.4375H10.0625V21.5625Z" fill="#5477BB"/>
<path d="M16.625 13.4375C16.3764 13.4375 16.1379 13.5363 15.9621 13.7121C15.7863 13.8879 15.6875 14.1264 15.6875 14.375C15.6875 14.6236 15.7863 14.8621 15.9621 15.0379C16.1379 15.2137 16.3764 15.3125 16.625 15.3125H22.25C22.4986 15.3125 22.7371 15.2137 22.9129 15.0379C23.0887 14.8621 23.1875 14.6236 23.1875 14.375C23.1875 14.1264 23.0887 13.8879 22.9129 13.7121C22.7371 13.5363 22.4986 13.4375 22.25 13.4375H16.625Z" fill="#5477BB"/>
<path d="M22.25 21.5625H16.625C16.3764 21.5625 16.1379 21.6613 15.9621 21.8371C15.7863 22.0129 15.6875 22.2514 15.6875 22.5C15.6875 22.7486 15.7863 22.9871 15.9621 23.1629C16.1379 23.3387 16.3764 23.4375 16.625 23.4375H22.25C22.4986 23.4375 22.7371 23.3387 22.9129 23.1629C23.0887 22.9871 23.1875 22.7486 23.1875 22.5C23.1875 22.2514 23.0887 22.0129 22.9129 21.8371C22.7371 21.6613 22.4986 21.5625 22.25 21.5625Z" fill="#5477BB"/>
<path d="M27.5625 4.375V25C28.8736 24.9986 30.1637 25.3291 31.3125 25.9609V5.3125C31.3119 4.81539 31.1142 4.3388 30.7627 3.98729C30.4112 3.63578 29.9346 3.43806 29.4375 3.4375H26.625C26.8736 3.4375 27.1121 3.53627 27.2879 3.71209C27.4637 3.8879 27.5625 4.12636 27.5625 4.375V4.375Z" fill="#5477BB"/>
<path d="M5.375 32.8125C5.12636 32.8125 4.8879 32.7137 4.71209 32.5379C4.53627 32.3621 4.4375 32.1236 4.4375 31.875V4.375C4.4375 4.12636 4.53627 3.8879 4.71209 3.71209C4.8879 3.53627 5.12636 3.4375 5.375 3.4375H2.64063C2.14352 3.43806 1.66693 3.63578 1.31542 3.98729C0.963907 4.3388 0.766183 4.81539 0.765625 5.3125V34.6875C0.766183 35.1846 0.963907 35.6612 1.31542 36.0127C1.66693 36.3642 2.14352 36.5619 2.64063 36.5625H20.7109C20.0791 35.4137 19.7486 34.1236 19.75 32.8125H5.375Z" fill="#5477BB"/>
<path d="M27.5625 25.9375C26.2028 25.9375 24.8735 26.3407 23.743 27.0961C22.6124 27.8516 21.7312 28.9253 21.2108 30.1815C20.6905 31.4378 20.5543 32.8201 20.8196 34.1537C21.0849 35.4874 21.7397 36.7124 22.7011 37.6738C23.6626 38.6353 24.8876 39.2901 26.2213 39.5554C27.5549 39.8207 28.9372 39.6845 30.1934 39.1642C31.4497 38.6438 32.5234 37.7626 33.2788 36.632C34.0343 35.5014 34.4375 34.1722 34.4375 32.8125C34.4354 30.9898 33.7104 29.2423 32.4216 27.9534C31.1327 26.6646 29.3852 25.9396 27.5625 25.9375ZM31.3504 31.6004L27.6004 35.3504C27.4246 35.5262 27.1861 35.6249 26.9375 35.6249C26.6889 35.6249 26.4504 35.5262 26.2746 35.3504L24.3996 33.4754C24.2262 33.2991 24.1294 33.0614 24.1304 32.8141C24.1314 32.5668 24.2301 32.3299 24.405 32.155C24.5799 31.9801 24.8168 31.8814 25.0641 31.8804C25.3114 31.8794 25.5491 31.9762 25.7254 32.1496L26.9375 33.3616L30.0246 30.2746C30.2009 30.1012 30.4386 30.0044 30.6859 30.0054C30.9332 30.0064 31.1701 30.1051 31.345 30.28C31.5199 30.4549 31.6186 30.6918 31.6196 30.9391C31.6206 31.1864 31.5238 31.4241 31.3504 31.6004V31.6004Z" fill="#5477BB"/>
</svg>
